<?xml version="1.0" encoding="UTF-8" standalone="no"?>
<!--
 * Copyright 2018 Google LLC. All rights reserved.
 *
 * Licensed under the Apache License, Version 2.0 (the "License"); you may not
 * use this file except in compliance with the License. You may obtain a copy of
 * the License at
 *
 *     http://www.apache.org/licenses/LICENSE-2.0
 *
 * Unless required by applicable law or agreed to in writing, software
 * distributed under the License is distributed on an "AS IS" BASIS, WITHOUT
 * WARRANTIES OR CONDITIONS OF ANY KIND, either express or implied. See the
 * License for the specific language governing permissions and limitations under
 * the License.
-->
<svg id="hourglass" xmlns="http://www.w3.org/2000/svg"
    xmlns:xlink="http://www.w3.org/1999/xlink"
    viewBox="0 0 400 500"
    version="1.1">
    <script xlink:href="chipmunk.js"></script>
    <script><![CDATA[
        var wasm_loaded = false;
        var cm_instance;
        // Coordinates for the boundaries of the hour glass that sand will hit.
        const interior = [
            105,89,
            276,89,
            284,100,
            288,127,
            285,151,
            273,176,
            249,204,
            205,247,
            205,258,
            250,308,
            271,334,
            284,358,
            287,379,
            285,403,
            96,403,
            98,375,
            107,345,
            128,315,
            181,258,
            181,247,
            127,193,
            114,180,
            105,165,
            98,141,
            97,111,
            104,89
        ];

        function build_world() {
            // Create the walls of the interior of the hourglass shape.
            for (var i = 0; i < interior.length - 2; i+=2) {
                Module._CM_Add_wall(cm_instance, 0, interior[i],
                                    interior[i+1], interior[i+2],
                                    interior[i+3]);
            }

            generate_sand();

            // Invert gravity and run for a few ticks to clump the sand at the top of the hourglass before starting.
            Module._CM_Set_gravity(cm_instance, 2, -50);
            for (var i = 0; i < 200; i++) {
                Module._CM_Step(cm_instance);
            }

            Module._CM_Set_gravity(cm_instance, 0, 50);
        }

        Module.onRuntimeInitialized = function() {
            wasm_loaded = true;
            cm_instance = Module._CM_Instance_new();
            build_world();
        }

        const cols = 41;
        const rows = 18;
        const startx = 109;
        const starty = 92;
        const grains = cols * rows;
        const SVGNS = "http://www.w3.org/2000/svg";

        function generate_sand() {
            var ball, ballNode;
            var bottle = document.querySelector("#bottle");
            var ident;
            x = startx;
            y = starty;

            for (var j = 0; j < rows; j++) {
                for (var i = 0; i < cols; i++) {
                    ident = (j * cols) + i;
                    ball = Module._CM_Add_circle(cm_instance, (i * cols) +j,
                                                 x, y, 1.8);
                    ballNode = document.createElementNS(SVGNS, "circle");
                    ballNode.setAttribute("id", "ball" + ident);
                    ballNode.setAttribute("cx", x);
                    ballNode.setAttribute("cy", y);
                    ballNode.setAttribute("r", "2");
                    ballNode.setAttribute("physref", ball);
                    bottle.appendChild(ballNode);

                    x +=4;
                }
                x = startx;
                y += 4;
            }
        }

        function handle_tick() {
            // Run a tick of the simulation, update sand positions.
            Module._CM_Step(cm_instance);
            for (var i = 0; i < grains; i++) {
                var ident = "ball" + i;
                var ballNode = document.getElementById(ident);
                var ball = ballNode.getAttribute("physref");
                var location = Module._CM_Get_location(cm_instance, ball);

                // Create a TypeArray view from the wasm pointer value.
                var pos = new Float32Array(Module.HEAPU8.buffer, location, 3);
                var val = ballNode.getAttribute("cx");
                ballNode.setAttribute("cx", pos[0]);
                ballNode.setAttribute("cy", pos[1]);
            }
        }

        function setup() {
            function update() {
                // Do stuff with Chipmunk2D
                if (wasm_loaded) {
                    handle_tick();
                }

                requestAnimationFrame(update);
            }

            requestAnimationFrame(update);
        }

        var flipped = 0;
        function handle_click(evt) {
            if (flipped) {
                document.querySelector("#unflip").beginElement();
                Module._CM_Set_gravity(cm_instance, 0, 50);
            } else {
                document.querySelector("#flip").beginElement();
                Module._CM_Set_gravity(cm_instance, 0, -50);
            }

            flipped = !flipped;
        }

        document.querySelector("#hourglass").addEventListener('click', handle_click);

        window.onload = setup;
    ]]></script>
  <defs>
    <linearGradient id="linearGradient3984">
      <stop
          id="stop3986"
          style="stop-color:#0c73b6"
          offset="0"
      />
      <stop
          id="stop3988"
          style="stop-color:#0c73b6;stop-opacity:0"
          offset="1"
      />
    </linearGradient>
    <linearGradient
        id="linearGradient3610"
        y2="362.86"
        gradientUnits="userSpaceOnUse"
        x2="365"
        gradientTransform="translate(-67,248)"
        y1="362.86"
        x1="145"
      >
      <stop
          id="stop3606"
          style="stop-color:#000000"
          offset="0"
      />
      <stop
          id="stop3614"
          style="stop-color:#757575"
          offset=".29773"
      />
      <stop
          id="stop3612"
          style="stop-color:#403f3f"
          offset=".82273"
      />
      <stop
          id="stop3608"
          style="stop-color:#000000"
          offset="1"
      />
    </linearGradient>
    <linearGradient
        id="linearGradient3635"
        y2="362.86"
        gradientUnits="userSpaceOnUse"
        y1="362.86"
        gradientTransform="matrix(.84689 0 0 .83759 -25.957 321.43)"
        x2="365"
        x1="145"
      >
      <stop
          id="stop3606-5"
          style="stop-color:#000000"
          offset="0"
      />
      <stop
          id="stop3614-5"
          style="stop-color:#757575"
          offset=".29773"
      />
      <stop
          id="stop3612-2"
          style="stop-color:#403f3f"
          offset=".82273"
      />
      <stop
          id="stop3608-1"
          style="stop-color:#000000"
          offset="1"
      />
    </linearGradient>
    <linearGradient
        id="linearGradient3610-80"
        y2="362.86"
        gradientUnits="userSpaceOnUse"
        x2="365"
        gradientTransform="matrix(1.0108 0 0 .99961 -69.547 619.89)"
        y1="362.86"
        x1="145"
      >
      <stop
          id="stop3606-1"
          style="stop-color:#000000"
          offset="0"
      />
      <stop
          id="stop3614-0"
          style="stop-color:#757575"
          offset=".29773"
      />
      <stop
          id="stop3612-36"
          style="stop-color:#403f3f"
          offset=".82273"
      />
      <stop
          id="stop3608-7"
          style="stop-color:#000000"
          offset="1"
      />
    </linearGradient>
    <linearGradient
        id="linearGradient3753"
        y2="362.86"
        gradientUnits="userSpaceOnUse"
        y1="362.86"
        gradientTransform="matrix(.87204 0 0 .83682 -32.08 667.47)"
        x2="365"
        x1="145"
      >
      <stop
          id="stop3606-5-2"
          style="stop-color:#000000"
          offset="0"
      />
      <stop
          id="stop3614-5-1"
          style="stop-color:#757575"
          offset=".29773"
      />
      <stop
          id="stop3612-2-53"
          style="stop-color:#403f3f"
          offset=".82273"
      />
      <stop
          id="stop3608-1-3"
          style="stop-color:#000000"
          offset="1"
      />
    </linearGradient>
    <linearGradient
        id="linearGradient3874"
        y2="555.36"
        gradientUnits="userSpaceOnUse"
        x2="490"
        gradientTransform="translate(-296,250)"
        y1="555.36"
        x1="665.71"
      >
      <stop
          id="stop3870"
          style="stop-color:#00acff"
          offset="0"
      />
      <stop
          id="stop3872"
          style="stop-color:#ffffff;stop-opacity:0"
          offset="1"
      />
    </linearGradient>
    <linearGradient
        id="linearGradient3882"
        y2="555.36"
        gradientUnits="userSpaceOnUse"
        x2="490"
        gradientTransform="translate(-296,250)"
        y1="517.36"
        x1="584.21"
      >
      <stop
          id="stop3878"
          style="stop-color:#0073ff"
          offset="0"
      />
      <stop
          id="stop3880"
          style="stop-color:#000000;stop-opacity:0"
          offset="1"
      />
    </linearGradient>
    <linearGradient
        id="linearGradient3892"
        y2="531.67"
        gradientUnits="userSpaceOnUse"
        x2="487.75"
        gradientTransform="translate(-296,250)"
        y1="451.91"
        x1="487.75"
      >
      <stop
          id="stop3888"
          style="stop-color:#24caf2"
          offset="0"
      />
      <stop
          id="stop3890"
          style="stop-color:#0ab2fd"
          offset="1"
      />
    </linearGradient>
    <linearGradient
        id="linearGradient3944"
        y2="651.43"
        gradientUnits="userSpaceOnUse"
        x2="487.2"
        gradientTransform="translate(-296,250)"
        y1="708.71"
        x1="487.2"
      >
      <stop
          id="stop3888-2"
          style="stop-color:#24caf2"
          offset="0"
      />
      <stop
          id="stop3890-7"
          style="stop-color:#0ab2fd"
          offset="1"
      />
    </linearGradient>
    <linearGradient
        id="linearGradient3990"
        y2="644.72"
        xlink:href="#linearGradient3984"
        gradientUnits="userSpaceOnUse"
        x2="426.99"
        gradientTransform="translate(-296,250)"
        y1="633.75"
        x1="410.3"
    />
    <linearGradient
        id="linearGradient4022"
        y2="638.7"
        gradientUnits="userSpaceOnUse"
        x2="514.07"
        gradientTransform="matrix(1.5431 0 0 1.0797 -557.8 201.57)"
        y1="638.7"
        x1="364.87"
      >
      <stop
          id="stop4018"
          style="stop-color:#0ab2fd"
          offset="0"
      />
      <stop
          id="stop4020"
          style="stop-color:#0ab2fd;stop-opacity:0"
          offset="1"
      />
    </linearGradient>
    <linearGradient
        id="linearGradient4070"
        y2="465.46"
        xlink:href="#linearGradient3984"
        gradientUnits="userSpaceOnUse"
        x2="437.88"
        gradientTransform="matrix(1.0118 0 0 1 -300.68 250)"
        y1="479.25"
        x1="395.63"
    />
    <linearGradient
        id="linearGradient4080"
        y2="428.69"
        gradientUnits="userSpaceOnUse"
        x2="529.62"
        gradientTransform="translate(-296,250)"
        y1="428.69"
        x1="445.48"
      >
      <stop
          id="stop4076"
          style="stop-color:#0ab2fd"
          offset="0"
      />
      <stop
          id="stop4078"
          style="stop-color:#0ab2fd;stop-opacity:0"
          offset="1"
      />
    </linearGradient>
    <filter
        id="filter4162"
        color-interpolation-filters="sRGB"
      >
      <feGaussianBlur
          id="feGaussianBlur4164"
          stdDeviation="0.86620579"
      />
    </filter
    >
    <linearGradient
        id="linearGradient4216"
        y2="497.81"
        gradientUnits="userSpaceOnUse"
        x2="535.46"
        gradientTransform="translate(-296,250)"
        y1="511.95"
        x1="549.39"
      >
      <stop
          id="stop4212"
          style="stop-color:#ffffff"
          offset="0"
      />
      <stop
          id="stop4214"
          style="stop-color:#ffffff;stop-opacity:0"
          offset="1"
      />
    </linearGradient>
    <filter
        id="filter4286"
        color-interpolation-filters="sRGB"
      >
      <feGaussianBlur
          id="feGaussianBlur4288"
          stdDeviation="1.4684965"
      />
    </filter>
    <radialGradient id="ballGrad" cx="20%" cy="20%">
      <stop offset="0%" stop-color="yellow"/>
      <stop offset="100%" stop-color="orange"/>
    </radialGradient>
  </defs>
  <g id="layer1" transform="translate(0 -552.36)">
    <path
        id="path3660"
        style="fill:#118fd9"
        d="m103.69 636.09s-20.732 29.084-2.5 75 77.131 65.348 77 92.5c-0.1307 27.152-60.543 54.062-76.5 98s-4 64.5-4 64.5l177 3s18.775-44.523-9.5-85.5-67.93-56.582-68-81.5c-0.0701-24.918 76.762-56.627 82.5-112 5.7384-55.373-17-56-17-56l-159 2z"
    />
    <path
        id="path3660-9"
        style="fill:#ffffff"
        d="m106.6 638.86s-20.732 29.084-2.5 75 77.131 65.348 77 92.5c-0.1307 27.152-60.543 54.062-76.5 98s-4 64.5-4 64.5l177 3s18.775-44.523-9.5-85.5-67.93-56.582-68-81.5c-0.0701-24.918 76.762-56.627 82.5-112 5.7384-55.373-17-56-17-56l-159 2z"
    />
    <path
        id="path3660-4"
        style="stroke:url(#linearGradient3882);fill:url(#linearGradient3874)"
        d="m110.6 639.86s-20.732 29.084-2.5 75 77.131 65.348 77 92.5c-0.1307 27.152-60.543 54.062-76.5 98s-4 64.5-4 64.5l177 3s18.775-44.523-9.5-85.5-67.93-56.582-68-81.5c-0.0701-24.918 76.762-56.627 82.5-112 5.7384-55.373-17-56-17-56l-159 2z"
    />
    <path
        id="rect4072"
        style="opacity:.29502;filter:url(#filter4162);fill:url(#linearGradient4080)"
        d="m157.07 634.15h68.963c4.2057 0 7.5915 3.3858 7.5915 7.5915v73.913c0 4.2057-3.3858 7.5915-7.5915 7.5915h-68.963c-4.2057 0-7.5915-3.3858-7.5915-7.5915-5.2695-24.232-11.545-48.387 0-73.913 0-4.2057 3.3858-7.5915 7.5915-7.5915z"
    />
    <path
        id="path4062-5-4"
        style="opacity:.59770;fill:#ffffff"
        d="m225.81 637.72s19.046 43.018 4.5251 69.05c-14.521 26.031-51.307 43.807-51.307 43.807 15.065-25.8 29.292-42.666 46.782-112.86z"
    />
    <rect
        id="rect2830-5"
        style="opacity:0.99;stroke:#000000;stroke-width:1.6845;fill:url(#linearGradient3635)"
        ry="6.361"
        height="29.316"
        width="186.32"
        y="610.7"
        x="96.842"
    />
    <rect
        id="rect2830"
        style="opacity:0.99;stroke:#000000;stroke-width:2;fill:url(#linearGradient3610)"
        ry="7.5944"
        height="35"
        width="220"
        y="593.36"
        x="78"
    />
    <path
        id="path3936"
        style="fill:none"
        d="m97.182 957.35c4.9498-0.70711 188.03 0.53034 188.03 0.53034 1.0267-7.4965 1.7079-9.181 1.7123-18.062 0 0-74.603-38.581-95.348-38.391-21.246 0.19456-94.631 35.709-94.631 35.709-1.8749 15.33 0.0333 16.036 0.23744 20.213z"
    />
    <rect
        id="rect2830-5-8"
        style="opacity:0.99;stroke:#000000;stroke-width:1.7085;fill:url(#linearGradient3753)"
        ry="6.3552"
        height="29.289"
        width="191.85"
        y="956.47"
        x="94.366"
    />
    <rect
        id="rect2830-2"
        style="opacity:0.99;stroke:#000000;stroke-width:2.0103;fill:url(#linearGradient3610-80)"
        ry="7.5915"
        height="34.986"
        width="222.37"
        y="965.12"
        x="77.014"
    />
    <path
        id="path3884"
        style="fill:none"
        d="m106.47 709.1c28.082-11.689 172.11-8.2839 170.88 4.114-4.998 13.746-8.3628 22.552-77.66 83.189l-7.2407 8.9116-0.17694 98.101-2.464-0.1353 0.0997-97.903-7.7743-9.3033c-20.644-29.263-80.884-66.065-75.66-86.974z"
    />
    <path
        id="path3946-3"
        style="opacity:.47510;fill:url(#linearGradient3990)"
        d="m183.32 817.04s-66.225 61.243-76.592 85.102c-15.492 35.656 11.494 48.318 11.494 48.318-23.383-54.158 54.916-96.945 65.098-133.42z"
    />
    <path
        id="path4014"
        style="fill:url(#linearGradient4022)"
        d="m192.9 828.6c-22.688 0.65546-61.104 115.26-61.104 115.26l126.57-2.2904s-42.76-113.62-65.468-112.97z"
    />
    <path
        id="path3946"
        style="opacity:.34866;fill:#ffffff"
        d="m169.1 840.23s-35.035 36.141-42.741 60c-11.516 35.656 23.786 51.5 23.786 51.5-17.381-54.158 11.386-75.025 18.955-111.5z"
    />
    <path
        id="path3946-37"
        style="opacity:.34866;fill:#ffffff"
        d="m221.8 838.61s37.247 36.141 45.439 60c12.242 35.656-25.288 51.5-25.288 51.5 18.478-54.158-12.105-75.025-20.151-111.5z"
    />
    <path
        id="path4062"
        style="opacity:.59770;fill:url(#linearGradient4070)"
        d="m107.14 642.63s-15.356 44.326-2.1464 70.357c13.209 26.031 80.133 75.307 80.133 75.307-36.273-40.655-74.98-79.438-77.987-145.66z"
    />
    <path
        id="path4062-5-4-9"
        style="opacity:.15709;fill:#ffffff"
        d="m128.38 706.27c1.0463 4.1948 2.717 8.2219 5.2188 11.906 17.676 26.031 45.467 33.913 45.467 33.913-11.862-16.69-16.932-19.047-29.292-45.112l-21.393-0.70711z"
    />
    <path
        id="path4192"
        style="filter:url(#filter4286);fill:url(#linearGradient4216)"
        d="m277.46 710.16c-10.419 31.765-33.816 49.882-76.014 82.731 0 0 26.949-28.939 39.598-41.719 32.897-33.24 28.991-41.366 36.416-41.012z"
    />
  </g>
  <g id="bottle" style="fill: url(#ballGrad)"></g>
    <animateTransform id="flip" attributeName="transform" attributeType="XML" type="rotate" from="0" to="180" begin="undefined" dur="1s" fill="freeze"/>
    <animateTransform id="unflip" attributeName="transform" attributeType="XML" type="rotate" from="180" to="0" begin="undefined" dur="1s" fill="freeze"/>
</svg>